<svg xmlns="http://www.w3.org/2000/svg" width="28" height="28" viewBox="0 0 28 28">  <g fill="#000000">    <path d="M8,7 L8,17 C8,20.3137085 10.6862915,23 14,23 C17.3137085,23 20,20.3137085 20,17 L20,7 L8,7 Z M8,5 L20,5 C21.1045695,5 22,5.8954305 22,7 L22,17 C22,21.418278 18.418278,25 14,25 C9.581722,25 6,21.418278 6,17 L6,7 C6,5.8954305 6.8954305,5 8,5 Z"/>    <path d="M9.5,11.5 L9.5,13.5 L18.5,13.5 L18.5,11.5 L9.5,11.5 Z M9.5,10.5 L18.5,10.5 C19.0522847,10.5 19.5,10.9477153 19.5,11.5 L19.5,13.5 C19.5,14.0522847 19.0522847,14.5 18.5,14.5 L9.5,14.5 C8.94771525,14.5 8.5,14.0522847 8.5,13.5 L8.5,11.5 C8.5,10.9477153 8.94771525,10.5 9.5,10.5 Z"/>  </g></svg>