<svg xmlns="http://www.w3.org/2000/svg" width="28" height="28" viewBox="0 0 28 28">
  <g fill="#000000">
    <path d="M5,4 L5,24 L13,24 L13,4 L5,4 Z M5,2 L13,2 C14.1045695,2 15,2.8954305 15,4 L15,24 C15,25.1045695 14.1045695,26 13,26 L5,26 C3.8954305,26 3,25.1045695 3,24 L3,4 C3,2.8954305 3.8954305,2 5,2 Z"/>
    <polygon points="4.211 11.595 14.019 11.595 14.019 10.595 4.211 10.595"/>
    <polygon points="5.5 14.5 5.5 19.808 6.5 19.808 6.5 14.5"/>
    <polygon points="17 17.5 23 17.5 23 16.5 17 16.5"/>
    <path d="M18,15 L18,24 L24,24 L24,15 L18,15 Z M18,13 L24,13 C25.1045695,13 26,13.8954305 26,15 L26,24 C26,25.1045695 25.1045695,26 24,26 L18,26 C16.8954305,26 16,25.1045695 16,24 L16,15 C16,13.8954305 16.8954305,13 18,13 Z"/>
  </g>
</svg>
