<svg xmlns="http://www.w3.org/2000/svg" width="28" height="28" viewBox="0 0 28 28">
  <g fill="#000000" fill-rule="evenodd">
    <path fill-rule="nonzero" d="M8,4.56037898 C7.44771525,4.56037898 7,5.00809423 7,5.56037898 L7,21.041257 C7,21.5018854 7.31464956,21.9029259 7.76204729,22.0125337 L15.7620473,23.9724506 C15.8399265,23.9915302 15.9198177,24.0011738 16,24.0011738 C16.5522847,24.0011738 17,23.5534586 17,23.0011738 L17,7.52029585 C17,7.05966737 16.6853504,6.6586269 16.2379527,6.54901911 L8.23795271,4.58910224 C8.16007353,4.57002265 8.08018227,4.56037898 8,4.56037898 Z M16.7138581,4.60646563 C18.0560513,4.93528901 19,6.13841041 19,7.52029585 L19,23.0011738 C19,24.6580281 17.6568542,26.0011738 16,26.0011738 C15.7594532,26.0011738 15.5197794,25.9722428 15.2861419,25.9150041 L7.28614187,23.9550872 C5.94394868,23.6262638 5,22.4231424 5,21.041257 L5,5.56037898 C5,3.90352473 6.34314575,2.56037898 8,2.56037898 C8.24054682,2.56037898 8.4802206,2.58930999 8.71385813,2.64654876 L16.7138581,4.60646563 Z"/>
    <circle cx="15" cy="15" r="1"/>
    <path fill-rule="nonzero" d="M7.42993936,4.45005338 L20.1761346,4.45005338 C20.7284194,4.45005338 21.1761346,4.89776863 21.1761346,5.45005338 L21.1761346,22.3309744 C21.1761346,22.8832591 21.6238499,23.3309744 22.1761346,23.3309744 C22.7284194,23.3309744 23.1761346,22.8832591 23.1761346,22.3309744 L23.1761346,5.45005338 C23.1761346,3.79319913 21.8329889,2.45005338 20.1761346,2.45005338 L7.42993936,2.45005338 C6.87765461,2.45005338 6.42993936,2.89776863 6.42993936,3.45005338 C6.42993936,4.00233813 6.87765461,4.45005338 7.42993936,4.45005338 Z"/>
  </g>
</svg>
