<svg xmlns="http://www.w3.org/2000/svg" width="28" height="28" viewBox="0 0 28 28">
  <g fill="#000000" fill-rule="evenodd">
    <path fill-rule="nonzero" d="M7 19.5L21 19.5C21.2761424 19.5 21.5 19.2761424 21.5 19 21.5 18.7238576 21.2761424 18.5 21 18.5L7 18.5C6.72385763 18.5 6.5 18.7238576 6.5 19 6.5 19.2761424 6.72385763 19.5 7 19.5zM6.14285714 7L6.14285714 17C6.14285714 17.5522847 6.59057239 18 7.14285714 18 7.69514189 18 8.14285714 17.5522847 8.14285714 17L8.14285714 7C8.14285714 6.44771525 7.69514189 6 7.14285714 6 6.59057239 6 6.14285714 6.44771525 6.14285714 7zM9.57142857 7L9.57142857 17C9.57142857 17.5522847 10.0191438 18 10.5714286 18 11.1237133 18 11.5714286 17.5522847 11.5714286 17L11.5714286 7C11.5714286 6.44771525 11.1237133 6 10.5714286 6 10.0191438 6 9.57142857 6.44771525 9.57142857 7zM13 7L13 17C13 17.5522847 13.4477153 18 14 18 14.5522847 18 15 17.5522847 15 17L15 7C15 6.44771525 14.5522847 6 14 6 13.4477153 6 13 6.44771525 13 7zM16.4285714 7L16.4285714 17C16.4285714 17.5522847 16.8762867 18 17.4285714 18 17.9808562 18 18.4285714 17.5522847 18.4285714 17L18.4285714 7C18.4285714 6.44771525 17.9808562 6 17.4285714 6 16.8762867 6 16.4285714 6.44771525 16.4285714 7zM19.8571429 7L19.8571429 17C19.8571429 17.5522847 20.3048581 18 20.8571429 18 21.4094276 18 21.8571429 17.5522847 21.8571429 17L21.8571429 7C21.8571429 6.44771525 21.4094276 6 20.8571429 6 20.3048581 6 19.8571429 6.44771525 19.8571429 7z"/>
    <circle cx="8.5" cy="21.5" r="1.5"/>
    <circle cx="19.5" cy="21.5" r="1.5"/>
  </g>
</svg>
