<svg xmlns="http://www.w3.org/2000/svg" width="28" height="28" viewBox="0 0 28 28">
  <g fill="#000000">
    <path d="M15.9416036,10.4536866 L17.6416036,10.4536866 C18.2491168,10.4536866 18.7416036,10.9461734 18.7416036,11.5536866 L18.7416036,23.5630972 C18.7416036,24.1706104 18.2491168,24.6630972 17.6416036,24.6630972 L15.9416036,24.6630972 C15.3340903,24.6630972 14.8416036,24.1706104 14.8416036,23.5630972 L14.8416036,11.5536866 C14.8416036,10.9461734 15.3340903,10.4536866 15.9416036,10.4536866 Z" transform="rotate(-45 16.792 17.558)"/>
    <polygon points="9.005 15.05 9.005 3.225 7.905 3.225 7.905 15.05" transform="rotate(-45 8.455 9.138)"/>
    <path d="M12.7213855,5.04091073 L12.7213855,24.9409107 C12.7213855,25.2446673 12.9676289,25.4909107 13.2713855,25.4909107 L13.6713855,25.4909107 C13.9751422,25.4909107 14.2213855,25.2446673 14.2213855,24.9409107 L14.2213855,5.04091073 C14.2213855,4.73715412 13.9751422,4.49091073 13.6713855,4.49091073 L13.2713855,4.49091073 C12.9676289,4.49091073 12.7213855,4.73715412 12.7213855,5.04091073 Z M13.6713855,3.39091073 C14.5826554,3.39091073 15.3213855,4.1296409 15.3213855,5.04091073 L15.3213855,24.9409107 C15.3213855,25.8521806 14.5826554,26.5909107 13.6713855,26.5909107 L13.2713855,26.5909107 C12.3601157,26.5909107 11.6213855,25.8521806 11.6213855,24.9409107 L11.6213855,5.04091073 C11.6213855,4.1296409 12.3601157,3.39091073 13.2713855,3.39091073 L13.6713855,3.39091073 Z" transform="rotate(45 13.471 14.99)"/>
    <path d="M21.1204608,4.90596801 L25.0209927,4.90596801 C25.9322626,4.90596801 26.6709927,5.64469817 26.6709927,6.55596801 L26.6709927,8.25596801 C26.6709927,9.16723785 25.9322626,9.90596801 25.0209927,9.90596801 L16.0745952,9.90596801 C15.2146546,9.90596801 14.517535,9.20884842 14.517535,8.34890783 C14.517535,7.69985577 14.9201485,7.11888436 15.5278748,6.89098696 L20.5411071,5.01102487 C20.7263642,4.94155344 20.9226061,4.90596801 21.1204608,4.90596801 Z" transform="rotate(45 20.594 7.406)"/>
  </g>
</svg>
