<svg xmlns="http://www.w3.org/2000/svg" width="28" height="28" viewBox="0 0 28 28">
  <g fill="#000000">
    <path d="M10 9L18 9 18 7 10 7 10 9zM9.5 5L18.5 5C19.3284271 5 20 5.67157288 20 6.5L20 9.5C20 10.3284271 19.3284271 11 18.5 11L9.5 11C8.67157288 11 8 10.3284271 8 9.5L8 6.5C8 5.67157288 8.67157288 5 9.5 5zM3.5 16L11.5 16 11.5 14 3.5 14 3.5 16zM3 12L12 12C12.8284271 12 13.5 12.6715729 13.5 13.5L13.5 16.5C13.5 17.3284271 12.8284271 18 12 18L3 18C2.17157288 18 1.5 17.3284271 1.5 16.5L1.5 13.5C1.5 12.6715729 2.17157288 12 3 12zM16.5 16L24.5 16 24.5 14 16.5 14 16.5 16zM16 12L25 12C25.8284271 12 26.5 12.6715729 26.5 13.5L26.5 16.5C26.5 17.3284271 25.8284271 18 25 18L16 18C15.1715729 18 14.5 17.3284271 14.5 16.5L14.5 13.5C14.5 12.6715729 15.1715729 12 16 12zM2 20.5L26 20.5C26.2761424 20.5 26.5 20.2761424 26.5 20 26.5 19.7238576 26.2761424 19.5 26 19.5L2 19.5C1.72385763 19.5 1.5 19.7238576 1.5 20 1.5 20.2761424 1.72385763 20.5 2 20.5zM2 22.5L26 22.5C26.2761424 22.5 26.5 22.2761424 26.5 22 26.5 21.7238576 26.2761424 21.5 26 21.5L2 21.5C1.72385763 21.5 1.5 21.7238576 1.5 22 1.5 22.2761424 1.72385763 22.5 2 22.5z"/>
  </g>
</svg>
