<svg xmlns="http://www.w3.org/2000/svg" width="28" height="28" viewBox="0 0 28 28">
  <g fill="#000000">
    <path d="M2.2776521 13L25.8806264 13C26.4329111 13 26.8806264 12.5522847 26.8806264 12 26.8806264 11.4477153 26.4329111 11 25.8806264 11L2.2776521 11C1.72536735 11 1.2776521 11.4477153 1.2776521 12 1.2776521 12.5522847 1.72536735 13 2.2776521 13zM22.9337626 17.8168348C22.5403575 20.2146804 20.457481 22 18 22L10 22C7.53813862 22 5.45274787 20.208426 5.06432723 17.8051048 4.97621131 17.2598947 4.46279915 16.8893467 3.91758908 16.9774626 3.372379 17.0655785 3.00183096 17.5789907 3.08994688 18.1242008 3.63434594 21.4926258 6.55292757 24 10 24L18 24C21.440936 24 24.3559918 21.5013851 24.9073765 18.1406378 24.9967922 17.5956394 24.6274695 17.0813451 24.0824711 16.9919294 23.5374727 16.9025136 23.0231784 17.2718363 22.9337626 17.8168348z"/>
    <path d="M25.4782481,17.7099689 L24.9406488,12.8891703 C24.8794392,12.340288 24.3848621,11.9449511 23.8359797,12.0061606 C23.2870973,12.0673701 22.8917604,12.5619473 22.9529699,13.1108297 L23.4905693,17.9316282 C23.5517788,18.4805105 24.046356,18.8758475 24.5952384,18.8146379 C25.1441207,18.7534284 25.5394577,18.2588512 25.4782481,17.7099689 Z" transform="matrix(-1 0 0 1 48.431 0)"/>
    <path d="M5.04973825 17.69986L4.50579417 12.8415786C4.44434309 12.2927233 3.94959197 11.897604 3.4007366 11.9590551 2.85188124 12.0205062 2.456762 12.5152573 2.51821307 13.0641127L3.06215716 17.9223941C3.12360823 18.4712494 3.61835936 18.8663687 4.16721472 18.8049176 4.71607009 18.7434665 5.11118933 18.2487154 5.04973825 17.69986zM7.95692193 22.7177945C7.73782046 23.4626271 7.14974408 23.8468302 5.95031161 23.9065018 5.39870906 23.9339439 4.97379309 24.4033524 5.00123523 24.954955 5.02867737 25.5065575 5.49808584 25.9314735 6.04968839 25.9040313 8.03799876 25.8051132 9.39410632 24.9191386 9.87562988 23.2822055 10.0314877 22.7523689 9.72831799 22.1965038 9.19848142 22.040646 8.66864485 21.8847882 8.11277973 22.1879579 7.95692193 22.7177945z"/>
    <path d="M20.9569219,22.7177945 C20.7378205,23.4626271 20.1497441,23.8468302 18.9503116,23.9065018 C18.3987091,23.9339439 17.9737931,24.4033524 18.0012352,24.954955 C18.0286774,25.5065575 18.4980858,25.9314735 19.0496884,25.9040313 C21.0379988,25.8051132 22.3941063,24.9191386 22.8756299,23.2822055 C23.0314877,22.7523689 22.728318,22.1965038 22.1984814,22.040646 C21.6686449,21.8847882 21.1127797,22.1879579 20.9569219,22.7177945 Z" transform="matrix(-1 0 0 1 40.917 0)"/>
    <path d="M8 5.92858698L8 11.3817218C8 11.9340066 8.44771525 12.3817218 9 12.3817218 9.55228475 12.3817218 10 11.9340066 10 11.3817218L10 5.92858698C10 5.37630223 9.55228475 4.92858698 9 4.92858698 8.44771525 4.92858698 8 5.37630223 8 5.92858698zM6 10.5C5.17157288 10.5 4.5 9.82842712 4.5 9 4.5 8.17157288 5.17157288 7.5 6 7.5 6.82842712 7.5 7.5 8.17157288 7.5 9 7.5 9.82842712 6.82842712 10.5 6 10.5zM12 10.5C11.1715729 10.5 10.5 9.82842712 10.5 9 10.5 8.17157288 11.1715729 7.5 12 7.5 12.8284271 7.5 13.5 8.17157288 13.5 9 13.5 9.82842712 12.8284271 10.5 12 10.5z"/>
    <path d="M15,5.5 C15,3.56700338 13.4329966,2 11.5,2 C9.56700338,2 8,3.56700338 8,5.5 C8,6.05228475 8.44771525,6.5 9,6.5 C9.55228475,6.5 10,6.05228475 10,5.5 C10,4.67157288 10.6715729,4 11.5,4 C12.3284271,4 13,4.67157288 13,5.5 C13,6.05228475 13.4477153,6.5 14,6.5 C14.5522847,6.5 15,6.05228475 15,5.5 Z"/>
  </g>
</svg>
