<svg xmlns="http://www.w3.org/2000/svg" width="28" height="28" viewBox="0 0 28 28">  <g fill="#000000" fill-rule="evenodd">    <path fill-rule="nonzero" d="M7,8 L7,22 L21,22 L21,8 L7,8 Z M6,6 L22,6 C22.5522847,6 23,6.44771525 23,7 L23,22 C23,23.1045695 22.1045695,24 21,24 L7,24 C5.8954305,24 5,23.1045695 5,22 L5,7 C5,6.44771525 5.44771525,6 6,6 Z"/>    <polygon fill-rule="nonzero" points="6 5.5 22 5.5 22 4.5 6 4.5"/>    <path fill-rule="nonzero" d="M9,13.5 C8.72385763,13.5 8.5,13.7238576 8.5,14 L8.5,20 C8.5,20.2761424 8.72385763,20.5 9,20.5 L19,20.5 C19.2761424,20.5 19.5,20.2761424 19.5,20 L19.5,14 C19.5,13.7238576 19.2761424,13.5 19,13.5 L9,13.5 Z M9,12.5 L19,12.5 C19.8284271,12.5 20.5,13.1715729 20.5,14 L20.5,20 C20.5,20.8284271 19.8284271,21.5 19,21.5 L9,21.5 C8.17157288,21.5 7.5,20.8284271 7.5,20 L7.5,14 C7.5,13.1715729 8.17157288,12.5 9,12.5 Z"/>    <circle cx="9.5" cy="10.5" r="1"/>    <circle cx="12.5" cy="10.5" r="1"/>    <circle cx="15.5" cy="10.5" r="1"/>    <circle cx="18.5" cy="10.5" r="1"/>  </g></svg>