<svg xmlns="http://www.w3.org/2000/svg" width="28" height="28" viewBox="0 0 28 28">
  <g fill="#000000">
    <path d="M5 5L5 13 23 13 23 5 5 5zM5 3L23 3C24.1045695 3 25 3.8954305 25 5L25 13C25 14.1045695 24.1045695 15 23 15L5 15C3.8954305 15 3 14.1045695 3 13L3 5C3 3.8954305 3.8954305 3 5 3zM8.55431188 16.7443052L5.57032552 21.7586531C5.42910917 21.9959558 5.50700252 22.3028061 5.74430518 22.4440224 5.98160785 22.5852388 6.28845813 22.5073454 6.42967448 22.2700428L9.41366084 17.2556948C9.55487719 17.0183922 9.47698384 16.7115419 9.23968118 16.5703255 9.00237851 16.4291092 8.69552823 16.5070025 8.55431188 16.7443052zM12.5543119 16.7443052L9.57032552 21.7586531C9.42910917 21.9959558 9.50700252 22.3028061 9.74430518 22.4440224 9.98160785 22.5852388 10.2884581 22.5073454 10.4296745 22.2700428L13.4136608 17.2556948C13.5548772 17.0183922 13.4769838 16.7115419 13.2396812 16.5703255 13.0023785 16.4291092 12.6955282 16.5070025 12.5543119 16.7443052zM16.5543119 16.7443052L13.5703255 21.7586531C13.4291092 21.9959558 13.5070025 22.3028061 13.7443052 22.4440224 13.9816078 22.5852388 14.2884581 22.5073454 14.4296745 22.2700428L17.4136608 17.2556948C17.5548772 17.0183922 17.4769838 16.7115419 17.2396812 16.5703255 17.0023785 16.4291092 16.6955282 16.5070025 16.5543119 16.7443052zM20.5543119 16.7443052L17.5703255 21.7586531C17.4291092 21.9959558 17.5070025 22.3028061 17.7443052 22.4440224 17.9816078 22.5852388 18.2884581 22.5073454 18.4296745 22.2700428L21.4136608 17.2556948C21.5548772 17.0183922 21.4769838 16.7115419 21.2396812 16.5703255 21.0023785 16.4291092 20.6955282 16.5070025 20.5543119 16.7443052z"/>
    <path d="M6,11.5 L22,11.5 C22.2761424,11.5 22.5,11.2761424 22.5,11 C22.5,10.7238576 22.2761424,10.5 22,10.5 L6,10.5 C5.72385763,10.5 5.5,10.7238576 5.5,11 C5.5,11.2761424 5.72385763,11.5 6,11.5 Z"/>
  </g>
</svg>
