<svg xmlns="http://www.w3.org/2000/svg" width="203" height="60" viewBox="0 0 203 60">
  <g fill="none">
    <path fill="#A6A6A6" d="M195.3,60 L7.095,60 C3.17996243,59.9917491 0.00825089696,56.8200376 0,52.905 L0,7.095 C-4.79872986e-16,3.1765397 3.1765397,7.1980948e-16 7.095,0 L195.3,0 C199.235803,-0.000418542699 202.442603,3.15961506 202.5,7.095 L202.5,52.905 C202.442603,56.8403849 199.235803,60.0004185 195.3,60 Z"/>
    <path fill="#000000" d="M201,52.905 C201,56.0778759 198.427876,58.65 195.255,58.65 L7.095,58.65 C5.56873399,58.653985 4.10361427,58.0504697 3.02297138,56.972641 C1.94232848,55.8948122 1.3349948,54.4312712 1.335,52.905 L1.335,7.08 C1.34326904,3.90469928 3.91968851,1.33498923 7.095,1.335 L195.3,1.335 C198.455288,1.35971581 201.000097,3.92461495 201,7.08 L201,52.905 Z"/>
    <path fill="#FFFFFF" d="M45.195 29.67C45.23599 26.6914933 46.7979905 23.9410142 49.335 22.38 47.7239541 20.07924 45.1223569 18.672821 42.315 18.585 39.315 18.27 36.51 20.355 34.995 20.355 33.48 20.355 31.14 18.615 28.65 18.675 25.368736 18.783247 22.3849467 20.6054084 20.79 23.475 17.385 29.355 19.92 38.01 23.19 42.765 24.825 45.09 26.73 47.7 29.19 47.61 31.65 47.52 32.535 46.11 35.475 46.11 38.415 46.11 39.24 47.61 41.79 47.61 44.34 47.61 46.05 45.27 47.625 42.915 48.7957586 41.257114 49.6968945 39.4244668 50.295 37.485 47.171272 36.1507604 45.1585427 33.0665487 45.195 29.67L45.195 29.67zM40.395 15.465C41.8234002 13.7536271 42.5283138 11.5527899 42.36 9.33 40.1810778 9.55666369 38.1674387 10.5956158 36.72 12.24 35.2917112 13.8648856 34.5685352 15.9912388 34.71 18.15 36.916304 18.1733574 39.0115096 17.1838012 40.395 15.465zM80.475 47.25L77.055 47.25 75.195 41.385 68.715 41.385 66.93 47.25 63.615 47.25 70.035 27.3 74.01 27.3 80.475 47.25zM74.64 39L72.96 33.78C72.77 33.21 72.45 31.95 72 30L72 30C71.8 30.85 71.485 32.105 71.055 33.765L69.27 39 74.64 39zM96.99 39.885C97.1083996 42.0036369 96.3983744 44.0853015 95.01 45.69 93.8813063 46.9264377 92.2737608 47.6153857 90.6 47.58 88.9666192 47.7108052 87.3953843 46.9251878 86.52 45.54L86.52 45.54 86.52 53.115 83.25 53.115 83.25 37.605C83.25 36.065 83.21 34.485 83.13 32.865L85.95 32.865 86.13 35.145 86.13 35.145C87.1104965 33.6387273 88.7455243 32.684817 90.5392971 32.5725215 92.3330698 32.460226 94.0743008 33.2027725 95.235 34.575 96.4450226 36.073365 97.068793 37.9606705 96.99 39.885zM93.735 40.005C93.781185 38.7806036 93.4514068 37.5714168 92.79 36.54 92.1628671 35.6214235 91.1118248 35.0846008 90 35.115 89.2154396 35.1141967 88.4557894 35.3904331 87.855 35.895 87.2140964 36.4172797 86.7697874 37.1419264 86.595 37.95 86.5067371 38.26795 86.4563874 38.595223 86.445 38.925L86.445 41.325C86.4162544 42.2997948 86.7594734 43.2490099 87.405 43.98 88.0366287 44.6962846 88.9555556 45.0924686 89.91 45.06 91.026628 45.1074717 92.0901619 44.5813618 92.73 43.665 93.4444014 42.5823323 93.7963315 41.3006764 93.735 40.005L93.735 40.005zM113.55 39.885C113.6684 42.0036369 112.958374 44.0853015 111.57 45.69 110.442474 46.9280795 108.834144 47.6173636 107.16 47.58 105.526619 47.7108052 103.955384 46.9251878 103.08 45.54L103.08 45.54 103.08 53.115 99.81 53.115 99.81 37.605C99.81 36.065 99.77 34.485 99.69 32.865L102.51 32.865 102.69 35.145 102.69 35.145C103.670497 33.6387273 105.305524 32.684817 107.099297 32.5725215 108.89307 32.460226 110.634301 33.2027725 111.795 34.575 113.003802 36.0740306 113.627416 37.9608636 113.55 39.885L113.55 39.885zM110.295 40.005C110.341185 38.7806036 110.011407 37.5714168 109.35 36.54 108.711346 35.6029657 107.63282 35.0637025 106.5 35.115 105.71544 35.1141967 104.955789 35.3904331 104.355 35.895 103.713182 36.4164797 103.26866 37.1414746 103.095 37.95 103.007544 38.268123 102.957209 38.5953007 102.945 38.925L102.945 41.325C102.917761 42.2995529 103.260786 43.2482321 103.905 43.98 104.568182 44.6994165 105.524448 45.0752897 106.5 45 107.616628 45.0474717 108.680162 44.5213618 109.32 43.605 110.011647 42.5356727 110.352479 41.2772155 110.295 40.005L110.295 40.005zM132 41.655C132.05114 43.2288246 131.403099 44.7445819 130.23 45.795 128.703777 47.0395984 126.765946 47.665914 124.8 47.55 122.99174 47.6351972 121.196643 47.2033334 119.625 46.305L120.36 43.635C121.751536 44.4812042 123.35142 44.9227306 124.98 44.91 125.985303 44.9734717 126.981619 44.6872957 127.8 44.1 128.45975 43.5744471 128.832363 42.7680464 128.805 41.925 128.822883 41.1603639 128.524381 40.4222497 127.98 39.885 127.172685 39.200895 126.233188 38.6902991 125.22 38.385 121.74 37.045 120 35.12 120 32.61 119.946389 31.0218692 120.640458 29.5004698 121.875 28.5 123.268423 27.422112 125.006843 26.8888542 126.765 27 128.319094 26.9493884 129.862546 27.2735134 131.265 27.945L130.5 30.555C129.323141 29.9307873 128.006938 29.6159309 126.675 29.64 125.723418 29.5804044 124.783328 29.8741827 124.035 30.465 123.52167 30.9214391 123.231627 31.578142 123.24 32.265 123.226823 33.0215688 123.564687 33.7416073 124.155 34.215 125.039412 34.8660005 126.021662 35.3723148 127.065 35.715 128.500699 36.2210287 129.799655 37.0527711 130.86 38.145 131.667453 39.1302411 132.07444 40.3833323 132 41.655zM142.635 35.265L139.11 35.265 139.11 42.255C139.11 44.035 139.73 44.925 140.97 44.925 141.449425 44.9353003 141.928227 44.8849 142.395 44.775L142.5 47.19C141.697347 47.4542969 140.854643 47.5761335 140.01 47.55 138.889212 47.6222417 137.792976 47.2001908 137.01 46.395 136.191434 45.2740132 135.8125 43.8917037 135.945 42.51L135.945 35.265 133.845 35.265 133.845 32.865 135.945 32.865 135.945 30.225 139.08 29.28 139.08 32.865 142.605 32.865 142.635 35.265zM158.535 39.945C158.614198 41.9333988 157.939112 43.8782873 156.645 45.39 155.294997 46.864232 153.362119 47.6659372 151.365 47.58 149.456582 47.6627512 147.610039 46.8933581 146.325 45.48 145.051174 44.0166184 144.380949 42.1239046 144.45 40.185 144.367868 38.1792114 145.060748 36.2187376 146.385 34.71 147.727457 33.2674213 149.636539 32.4884282 151.605 32.58 153.530741 32.4979988 155.39535 33.2657789 156.705 34.68 157.96872 36.1347406 158.624021 38.0200759 158.535 39.945L158.535 39.945zM155.22 40.05C155.256527 38.8528926 154.960574 37.6690822 154.365 36.63 153.816543 35.5562125 152.705617 34.8873299 151.5 34.905 150.249131 34.8455986 149.077915 35.5190478 148.5 36.63 147.899515 37.6889497 147.603606 38.8933472 147.645 40.11 147.61325 41.2970786 147.909068 42.4699694 148.5 43.5 149.067567 44.567876 150.178165 45.2353197 151.3875 45.2353197 152.596835 45.2353197 153.707433 44.567876 154.275 43.5 154.906711 42.4611211 155.23413 41.2657831 155.22 40.05zM168.93 35.67C168.598428 35.6095466 168.262038 35.5794221 167.925 35.58 166.893529 35.5273929 165.907526 36.0090613 165.315 36.855 164.755563 37.6971541 164.477253 38.6948681 164.52 39.705L164.52 47.205 161.325 47.205 161.325 37.35C161.325 35.69 161.285 34.19 161.205 32.85L163.995 32.85 164.115 35.61 164.205 35.61C164.508947 34.7111312 165.066334 33.9193298 165.81 33.33 166.477716 32.8332559 167.287775 32.5649895 168.12 32.565 168.384601 32.5444355 168.650399 32.5444355 168.915 32.565L168.93 35.67zM183.24 39.375C183.250388 39.8777586 183.210185 40.3802873 183.12 40.875L173.52 40.875C173.478312 42.1133691 173.9895 43.3061401 174.915 44.13 175.806993 44.8276092 176.918668 45.1839834 178.05 45.135 179.375811 45.1548522 180.693586 44.9258952 181.935 44.46L182.43 46.68C180.898214 47.3047745 179.253791 47.6060817 177.6 47.565 175.647386 47.6753894 173.737827 46.962705 172.335 45.6 171.019251 44.1657001 170.333116 42.2639718 170.43 40.32 170.362548 38.3602236 170.995365 36.440501 172.215 34.905 173.431428 33.376519 175.303045 32.5186943 177.255 32.595 179.119877 32.4935642 180.903519 33.3683441 181.965 34.905 182.835289 36.2303924 183.280122 37.7899266 183.24 39.375L183.24 39.375zM180.24 38.55C180.28385 37.6871207 180.069752 36.8307286 179.625 36.09 179.087867 35.2070515 178.106654 34.6933574 177.075 34.755 176.058803 34.729892 175.099016 35.221077 174.525 36.06 173.979977 36.783443 173.652199 37.647112 173.58 38.55L180.24 38.55 180.24 38.55zM73.5 15C73.6367079 16.4938648 73.0844158 17.9684849 72 19.005 70.7993961 19.8956377 69.3217694 20.3314844 67.83 20.235 67.0632982 20.2405037 66.296947 20.200433 65.535 20.115L65.535 10.5C66.4329109 10.3573634 67.340835 10.2871373 68.25 10.29 69.637709 10.18983 71.0155403 10.5888158 72.135 11.415 73.1020668 12.3465058 73.6026407 13.6611997 73.5 15L73.5 15zM71.85 15C71.9145906 14.0324686 71.5844871 13.0800386 70.935 12.36 70.2112521 11.7066435 69.2526052 11.3762623 68.28 11.445 67.8576206 11.4399632 67.4357198 11.4751215 67.02 11.55L67.02 18.885C67.3746335 18.9078129 67.7303665 18.9078129 68.085 18.885 69.1168792 19.0006807 70.150146 18.6798242 70.935 18 71.6551587 17.1746036 72.0073063 16.0910725 71.91 15L71.85 15zM82.365 16.5C82.4013487 17.4752169 82.0693429 18.4283948 81.435 19.17 80.7717628 19.8953105 79.8219935 20.2905902 78.84 20.25 77.9023555 20.2889931 76.9957564 19.9098698 76.365 19.215 75.7345066 18.4948429 75.4019668 17.5615861 75.435 16.605 75.3944056 15.621988 75.7326682 14.6608927 76.38 13.92 77.0394619 13.2105143 77.9773351 12.8265896 78.945 12.87 79.8911218 12.8323909 80.8063503 13.2105392 81.45 13.905 82.074121 14.6220401 82.4013481 15.5500777 82.365 16.5L82.365 16.5zM80.73 16.5C80.7158957 15.9730068 80.5716076 15.4576923 80.31 15 80.0484505 14.4648992 79.4950863 14.1352355 78.9 14.16 78.2777978 14.1183604 77.6896188 14.4477406 77.4 15 77.1048273 15.5202987 76.9594585 16.1121574 76.98 16.71 76.9626756 17.297986 77.1080145 17.8793415 77.4 18.39 77.6924699 18.9394771 78.2786802 19.2677548 78.9 19.23 79.4985496 19.2520703 80.0528555 18.9159486 80.31 18.375 80.619371 17.8384863 80.7653449 17.2233107 80.73 16.605L80.73 16.5zM94.14 13.08L91.935 20.145 90.435 20.145 89.52 17.145C89.2912362 16.3952195 89.1009875 15.6342246 88.95 14.865L88.95 14.865C88.8136981 15.6374255 88.623228 16.399306 88.38 17.145L87.405 20.145 85.905 20.145 83.895 13.08 85.5 13.08 86.31 16.5C86.5 17.29 86.66 18.045 86.79 18.765L86.79 18.765C86.91 18.175 87.105 17.425 87.375 16.515L88.38 13.14 89.655 13.14 90.615 16.44C90.845 17.25 91.035 18.025 91.185 18.765L91.185 18.765C91.3035017 17.9820086 91.4637298 17.2059037 91.665 16.44L92.52 13.14 94.02 13.14 94.14 13.08zM102.3 20.145L100.8 20.145 100.8 16.095C100.8 14.845 100.325 14.22 99.375 14.22 98.9389317 14.2162056 98.5227994 14.40237 98.235 14.73 97.9472691 15.068739 97.7926472 15.5006138 97.8 15.945L97.8 20.145 96.3 20.145 96.3 15.105C96.3 14.485 96.3 13.81 96.3 13.08L97.5 13.08 97.5 14.19 97.5 14.19C97.6898822 13.8385603 97.9693297 13.5435879 98.31 13.335 98.7369524 13.0675301 99.2311947 12.9270613 99.735 12.93 100.350062 12.9103154 100.946346 13.1434083 101.385 13.575 101.967799 14.2089342 102.261161 15.0564259 102.195 15.915L102.3 20.145z"/>
    <polygon fill="#FFFFFF" points="106.635 20.145 105 20.145 105 9.84 106.5 9.84"/>
    <path fill="#FFFFFF" d="M115.89 16.5C115.926349 17.4752169 115.594343 18.4283948 114.96 19.17 114.296763 19.8953105 113.346994 20.2905902 112.365 20.25 111.426979 20.2911037 110.519519 19.9116203 109.89 19.215 109.264925 18.4925881 108.937835 17.5595764 108.975 16.605 108.938523 15.6199586 109.282245 14.6586122 109.935 13.92 110.605273 13.2325785 111.541694 12.871153 112.5 12.93 113.446122 12.8923909 114.36135 13.2705392 115.005 13.965 115.604031 14.6710852 115.919429 15.5745115 115.89 16.5L115.89 16.5zM114.255 16.5C114.240896 15.9730068 114.096608 15.4576923 113.835 15 113.57345 14.4648992 113.020086 14.1352355 112.425 14.16 111.824584 14.1291238 111.263739 14.4597272 111 15 110.704827 15.5202987 110.559458 16.1121574 110.58 16.71 110.576232 17.2726493 110.721116 17.8263157 111 18.315 111.29247 18.8644771 111.87868 19.1927548 112.5 19.155 113.09855 19.1770703 113.652856 18.8409486 113.91 18.3 114.180158 17.7779956 114.29962 17.1910742 114.255 16.605L114.255 16.5zM123.495 20.145L122.085 20.145 121.965 19.335 121.965 19.335C121.482514 19.9869943 120.704951 20.3532377 119.895 20.31 119.287703 20.3360046 118.698228 20.1013063 118.275 19.665 117.890472 19.2632989 117.689542 18.7202457 117.72 18.165 117.686348 17.3561102 118.101695 16.5946402 118.8 16.185 119.717896 15.6857285 120.756716 15.4519941 121.8 15.51L121.8 15.45C121.8 14.52 121.3 14.055 120.3 14.055 119.661738 14.0514147 119.036255 14.2338471 118.5 14.58L118.2 13.5C118.935404 13.0689889 119.778101 12.8557138 120.63 12.885 122.48 12.885 123.405 13.86 123.405 15.81L123.405 18.42C123.389902 18.9964681 123.419994 19.573233 123.495 20.145L123.495 20.145zM121.86 17.715L121.86 16.62C120.13 16.62 119.265 17.095 119.265 18.045 119.241741 18.3503413 119.351042 18.6509195 119.565 18.87 119.776026 19.054625 120.049836 19.1512639 120.33 19.14 120.677462 19.1378511 121.014654 19.0219412 121.29 18.81 121.651865 18.5570231 121.865245 18.1414928 121.86 17.7L121.86 17.715zM132.435 20.145L131.04 20.145 131.04 19.005 131.04 19.005C130.613493 19.8517201 129.720834 20.3601214 128.775 20.295 127.94713 20.3104695 127.159441 19.9388136 126.645 19.29 126.059545 18.5496956 125.761237 17.6228113 125.805 16.68 125.758381 15.6739543 126.084135 14.6860104 126.72 13.905 127.265798 13.2648725 128.068878 12.9018361 128.91 12.915 129.702754 12.8335904 130.47397 13.2047015 130.905 13.875L130.905 13.875 130.905 9.84 132.405 9.84 132.405 18.255C132.385 18.935 132.395 19.565 132.435 20.145zM130.8 17.145L130.8 15.96C130.81773 15.7954763 130.81773 15.6295237 130.8 15.465 130.717538 15.0922836 130.517762 14.7558195 130.23 14.505 129.943488 14.2442975 129.567228 14.1045439 129.18 14.115 128.630143 14.100481 128.110484 14.3659594 127.8 14.82 127.44555 15.3461129 127.266998 15.9710436 127.29 16.605 127.259456 17.2120688 127.427999 17.8125052 127.77 18.315 128.080484 18.7690406 128.600143 19.034519 129.15 19.02 129.635223 19.0379996 130.099144 18.8200124 130.395 18.435 130.677293 18.0716675 130.82088 17.6196342 130.8 17.16L130.8 17.145zM145.875 16.5C145.911349 17.4752169 145.579343 18.4283948 144.945 19.17 144.282983 19.8970466 143.332365 20.2926796 142.35 20.25 141.412356 20.2889931 140.505756 19.9098698 139.875 19.215 139.249925 18.4925881 138.922835 17.5595764 138.96 16.605 138.923523 15.6199586 139.267245 14.6586122 139.92 13.92 140.593767 13.2284693 141.536585 12.8666906 142.5 12.93 143.446485 12.8903449 144.362537 13.2688338 145.005 13.965 145.598628 14.6732699 145.908602 15.5764678 145.875 16.5L145.875 16.5zM144.24 16.5C144.225896 15.9730068 144.081608 15.4576923 143.82 15 143.55845 14.4648992 143.005086 14.1352355 142.41 14.16 141.819722 14.1536399 141.275445 14.4778899 141 15 140.704827 15.5202987 140.559458 16.1121574 140.58 16.71 140.576232 17.2726493 140.721116 17.8263157 141 18.315 141.278495 18.8393928 141.823743 19.1671928 142.4175 19.1671928 143.011257 19.1671928 143.556505 18.8393928 143.835 18.315 144.127183 17.7940612 144.26749 17.2016509 144.24 16.605L144.24 16.5zM154.32 20.145L152.82 20.145 152.82 16.095C152.82 14.845 152.32 14.22 151.32 14.22 150.881327 14.203266 150.459888 14.3918046 150.18 14.73 149.89105 15.0680334 149.736258 15.5003855 149.745 15.945L149.745 20.145 148.245 20.145 148.245 15.105C148.245 14.485 148.245 13.81 148.245 13.08L149.625 13.08 149.625 14.19 149.625 14.19C149.816029 13.8393925 150.095223 13.5446881 150.435 13.335 150.883429 13.0534465 151.405801 12.912406 151.935 12.93 152.550062 12.9103154 153.146346 13.1434083 153.585 13.575 154.167799 14.2089342 154.461161 15.0564259 154.395 15.915L154.32 20.145zM164.91 14.25L163.185 14.25 163.185 17.685C163.185 18.555 163.5 18.99 164.1 18.99 164.334044 19.0199728 164.570956 19.0199728 164.805 18.99L164.805 20.19C164.413655 20.320641 164.002413 20.3815657 163.59 20.37 163.029849 20.4143601 162.479332 20.2051633 162.09 19.8 161.687184 19.2509278 161.500328 18.5729073 161.565 17.895L161.565 14.25 160.53 14.25 160.53 13.08 161.565 13.08 161.565 11.79 163.065 11.325 163.065 13.08 164.79 13.08 164.79 14.25 164.91 14.25zM173.22 20.145L171.72 20.145 171.72 16.125C171.72 14.855 171.245 14.22 170.295 14.22 169.601994 14.194377 168.981766 14.6471437 168.795 15.315 168.767508 15.5040055 168.767508 15.6959945 168.795 15.885L168.795 20.145 167.295 20.145 167.295 9.84 168.795 9.84 168.795 14.1 168.795 14.1C169.239665 13.3537286 170.056979 12.9105369 170.925 12.945 171.502696 12.9147206 172.068907 13.1142426 172.5 13.5 173.07285 14.1509914 173.359404 15.0052464 173.295 15.87L173.22 20.145zM181.815 16.275C181.837818 16.5144576 181.837818 16.7555424 181.815 16.995L177 16.995C176.979818 17.6060003 177.232717 18.194265 177.69 18.6 178.117514 18.9338705 178.64774 19.1088452 179.19 19.095 179.840036 19.104934 180.486181 18.9930034 181.095 18.765L181.335 19.86C180.582543 20.1637716 179.776287 20.3117553 178.965 20.295 178.008494 20.3505217 177.072561 20.0022673 176.385 19.335 175.740074 18.6293983 175.405069 17.6946257 175.455 16.74 175.420896 15.7798207 175.729257 14.8387885 176.325 14.085 176.919876 13.3306296 177.840056 12.9067894 178.8 12.945 179.716335 12.895091 180.592206 13.3273393 181.11 14.085 181.566844 14.7240141 181.813261 15.4894798 181.815 16.275zM180.315 15.87C180.339857 15.4440098 180.235277 15.0204633 180.015 14.655 179.752059 14.2237331 179.274512 13.970576 178.77 13.995 178.273867 13.9908665 177.807788 14.2323292 177.525 14.64 177.260403 14.9940842 177.099414 15.4147346 177.06 15.855L180.315 15.87z"/>
  </g>
</svg>
