<?xml version="1.0" encoding="utf-8"?>
<!-- Generator: Adobe Illustrator 23.0.1, SVG Export Plug-In . SVG Version: 6.00 Build 0)  -->
<svg version="1.1" id="Layer_1" xmlns="http://www.w3.org/2000/svg" xmlns:xlink="http://www.w3.org/1999/xlink" x="0px" y="0px"
	 viewBox="0 0 191 46" style="enable-background:new 0 0 191 46;" xml:space="preserve">
<style type="text/css">
	.st0{fill:#00A82D;}
	.st1{fill:#FFFFFF;}
	.st2{fill:#3C3C3B;}
</style>
<g>
	<g>
		<g>
			<path class="st0" d="M25.46,21.63c0,9.49-12.73,17.32-12.73,17.32S0,31.11,0,21.63C0,14.6,5.7,8.9,12.73,8.9
				S25.46,14.6,25.46,21.63z"/>
			<path class="st1" d="M18.3,22.1c-1.13,0.62-2.31,0.74-3.54,0.38c-0.1-0.03-0.15,0.01-0.21,0.07c-2,2-4.69,4.69-6.71,6.71
				c-0.53-0.53-2.12-2.12-2.64-2.64c1.98-1.98,4.7-4.7,6.62-6.61c0.08-0.08,0.09-0.14,0.05-0.24c-0.98-2.65,0.59-5.48,3.36-6.03
				c0.73-0.15,1.45-0.1,2.19,0.12c-0.6,1.02-1.19,2.01-1.78,3c0.56,0.56,1.11,1.11,1.66,1.66c1-0.6,2.01-1.2,3.06-1.83
				c0.07,0.32,0.15,0.61,0.19,0.9C20.8,19.4,19.89,21.22,18.3,22.1z"/>
		</g>
	</g>
	<g>
		<g>
			<g>
				<path class="st2" d="M49.78,33.36h-4.32v-2.07c-1.01,1.24-2.78,2.48-5.41,2.48c-3.31,0-5.94-2.14-5.94-6.99V16.45h4.32v9.43
					c0,2.26,0.86,3.87,3.23,3.87c1.43,0,2.82-0.79,3.8-2.07V16.45h4.32V33.36z"/>
				<path class="st2" d="M52.86,21.18c0-3.31,2.71-5.15,6.2-5.15c3.27,0,5.37,1.17,6.43,2.14l-1.62,3.08
					c-1.01-0.79-2.78-1.62-4.59-1.62c-1.32,0-2.1,0.71-2.1,1.47c0,2.82,9.13,1.28,9.13,7.25c0,3.34-2.71,5.41-6.84,5.41
					c-3.12,0-6.28-1.69-7.07-2.89l2.1-2.82c1.01,1.09,3.57,2.1,5.26,2.1c1.24,0,2.22-0.53,2.22-1.58
					C61.99,25.84,52.86,27.35,52.86,21.18z"/>
				<path class="st2" d="M69.02,11.75h4.32v4.7h5.45v4.06h-5.45v6.16c0,1.84,0.6,3.04,2.03,3.04c1.17,0,1.99-0.53,2.59-0.98
					l1.32,3.35c-1.01,0.83-2.82,1.65-5,1.65c-3.83,0-5.26-2.48-5.26-6.8V11.75z"/>
				<path class="st2" d="M82.62,17.65c1.47-0.86,3.76-1.62,5.98-1.62c5,0,6.77,2.56,6.77,7.03v10.3h-3.76V31.4
					c-0.9,1.28-2.71,2.18-5,2.18c-3.08,0-5.3-1.92-5.3-5.19c0-3.72,2.74-5.49,6.16-5.49c1.5,0,3.01,0.49,3.83,1.09
					c0.11-2.82-0.64-4.36-3.16-4.36c-1.95,0-3.19,0.6-4.43,1.17L82.62,17.65z M91.31,28.4v-1.73c-0.75-0.56-1.73-0.83-2.97-0.83
					c-1.43,0-2.71,0.68-2.71,2.1c0,1.28,1.05,1.99,2.41,1.99C89.84,29.94,90.78,29.15,91.31,28.4z"/>
				<path class="st2" d="M99.15,7.05h4.32V17.5c1.05-0.83,2.67-1.47,4.47-1.47c5.04,0,8.04,3.61,8.04,8.61
					c0,5.56-3.72,9.13-9.66,9.13c-2.78,0-5.64-0.9-7.18-1.88V7.05z M103.47,21.71v7.18c0.94,0.6,1.88,0.86,3.08,0.86
					c2.71,0,4.81-1.77,4.81-4.81c0-3.23-1.99-4.85-4.44-4.85C105.42,20.09,104.18,20.88,103.47,21.71z"/>
				<path class="st2" d="M126.92,16.03c5.6,0,9.21,3.8,9.21,8.87s-3.61,8.87-9.21,8.87c-5.6,0-9.21-3.8-9.21-8.87
					S121.32,16.03,126.92,16.03z M126.92,29.75c2.67,0,4.62-1.92,4.62-4.85c0-2.86-1.99-4.81-4.62-4.81c-2.56,0-4.59,1.88-4.59,4.81
					C122.34,27.72,124.29,29.75,126.92,29.75z"/>
				<path class="st2" d="M138.8,16.45h4.32v1.65c0.79-1.09,1.84-1.95,3.87-1.95c1.39,0,2.07,0.23,2.63,0.64l-1.54,4.06
					c-0.83-0.49-1.28-0.64-2.18-0.64c-1.5,0-2.29,0.83-2.78,1.8v11.35h-4.32V16.45z"/>
				<path class="st2" d="M151.57,27.76c1.62,0,2.74,1.47,2.74,2.78c0,1.54-1.13,3.01-2.74,3.01c-1.88,0-3.01-1.47-3.01-3.01
					C148.57,29.22,149.69,27.76,151.57,27.76z"/>
				<path class="st2" d="M172.87,33.36h-4.32v-2.07c-1.01,1.24-2.78,2.48-5.41,2.48c-3.31,0-5.94-2.14-5.94-6.99V16.45h4.32v9.43
					c0,2.26,0.86,3.87,3.23,3.87c1.43,0,2.82-0.79,3.8-2.07V16.45h4.32V33.36z"/>
				<path class="st2" d="M176.34,16.45H191v3.12l-9.17,9.77h8.98v4.02h-15.03v-3.12l9.17-9.73h-8.61V16.45z"/>
			</g>
		</g>
	</g>
</g>
</svg>
