<svg xmlns="http://www.w3.org/2000/svg" width="28" height="28" viewBox="0 0 28 28">
  <g fill="#000000">
    <path d="M11,14 L24,14 C24.5522847,14 25,13.5522847 25,13 C25,12.4477153 24.5522847,12 24,12 L11,12 C10.4477153,12 10,12.4477153 10,13 C10,13.5522847 10.4477153,14 11,14 Z"/>
    <path d="M4,4 L4,12 L11,12 L11,4 L4,4 Z M4,2 L11,2 C12.1045695,2 13,2.8954305 13,4 L13,12 C13,13.1045695 12.1045695,14 11,14 L4,14 C2.8954305,14 2,13.1045695 2,12 L2,4 C2,2.8954305 2.8954305,2 4,2 Z"/>
    <polygon points="3 5.5 11.975 5.5 11.975 4.5 3 4.5"/>
    <path d="M12 11.5L24 11.5C24.2761424 11.5 24.5 11.2761424 24.5 11 24.5 10.7238576 24.2761424 10.5 24 10.5L12 10.5C11.7238576 10.5 11.5 10.7238576 11.5 11 11.5 11.2761424 11.7238576 11.5 12 11.5zM5.54812092 14.1028116L5.54812092 17.441799C5.54812092 19.4008279 6.74283814 20.6447497 8.83466627 20.9710321 9.38035274 21.056148 9.89171912 20.6827818 9.97683505 20.1370953 10.061951 19.5914089 9.68858479 19.0800425 9.14289832 18.9949266 7.98051128 18.8136179 7.54812092 18.3634195 7.54812092 17.441799L7.54812092 14.1028116C7.54812092 13.5505269 7.10040567 13.1028116 6.54812092 13.1028116 5.99583617 13.1028116 5.54812092 13.5505269 5.54812092 14.1028116zM22 14L22 16C22 17.6217469 20.9380135 19.0124358 19.0064273 19.0000207L15 19C14.4477153 19 14 19.4477153 14 20 14 20.5522847 14.4477153 21 15 21L19 21C22.1741853 21.0204225 24 18.6294879 24 16L24 14C24 13.4477153 23.5522847 13 23 13 22.4477153 13 22 13.4477153 22 14z"/>
    <path d="M16.1111111,24 C16.0217947,24 16,24.024519 16,24 L16.1111111,24 Z M10,24 C10,24.024519 9.97820535,24 9.88888889,24 L10,24 Z M16,20 C16,19.4477153 16.4477153,19 17,19 C17.5522847,19 18,19.4477153 18,20 L18,24 C18,25.0800505 17.1822671,26 16.1111111,26 L9.88888889,26 C8.81773288,26 8,25.0800505 8,24 L8,20 C8,19.4477153 8.44771525,19 9,19 C9.55228475,19 10,19.4477153 10,20 L10,24 L16,24 L16,20 Z"/>
  </g>
</svg>
