<svg xmlns="http://www.w3.org/2000/svg" width="28" height="28" viewBox="0 0 28 28">
  <g fill="#000000">
    <path d="M4.57080187,13 L5,13 C5.55228475,13 6,13.4477153 6,14 L6,23 C6,23.5522847 6.44771525,24 7,24 L21,24 C21.5522847,24 22,23.5522847 22,23 L22,14 C22,13.4477153 22.4477153,13 23,13 L23.4291981,13 L14,4.35656838 L4.57080187,13 Z M24,23 C24,24.6568542 22.6568542,26 21,26 L7,26 C5.34314575,26 4,24.6568542 4,23 L4,15 L2,15 C1.08799111,15 0.651984241,13.8791127 1.32427537,13.2628459 L13.3242754,2.26284586 C13.7065966,1.91238471 14.2934034,1.91238471 14.6757246,2.26284586 L26.6757246,13.2628459 C27.3480158,13.8791127 26.9120089,15 26,15 L24,15 L24,23 Z"/>
    <path d="M13.3333333,14.8333333 L14.6666667,14.8333333 C14.8899068,14.8333333 15.0860998,14.981322 15.1474286,15.1959728 L16.480762,19.8626394 C16.5720214,20.1820475 16.3321894,20.5 16,20.5 L12,20.5 C11.6678106,20.5 11.4279786,20.1820475 11.519238,19.8626394 L12.8525714,15.1959728 C12.9139002,14.981322 13.1100932,14.8333333 13.3333333,14.8333333 Z"/>
    <path d="M14,16.5 C12.6192881,16.5 11.5,15.3807119 11.5,14 C11.5,12.6192881 12.6192881,11.5 14,11.5 C15.3807119,11.5 16.5,12.6192881 16.5,14 C16.5,15.3807119 15.3807119,16.5 14,16.5 Z"/>
  </g>
</svg>
