<svg xmlns="http://www.w3.org/2000/svg" width="28" height="28" viewBox="0 0 28 28">
  <g fill="#000000" fill-rule="evenodd">
    <path fill-rule="nonzero" d="M14,8.41421356 L25.2928932,19.7071068 C25.6834175,20.0976311 26.3165825,20.0976311 26.7071068,19.7071068 C27.0976311,19.3165825 27.0976311,18.6834175 26.7071068,18.2928932 L14.7071068,6.29289322 C14.3165825,5.90236893 13.6834175,5.90236893 13.2928932,6.29289322 L1.29289322,18.2928932 C0.902368927,18.6834175 0.902368927,19.3165825 1.29289322,19.7071068 C1.68341751,20.0976311 2.31658249,20.0976311 2.70710678,19.7071068 L14,8.41421356 Z"/>
    <path fill-rule="nonzero" d="M22.6464466,20.3535534 C22.8417088,20.5488155 23.1582912,20.5488155 23.3535534,20.3535534 C23.5488155,20.1582912 23.5488155,19.8417088 23.3535534,19.6464466 L14.3535534,10.6464466 C14.1582912,10.4511845 13.8417088,10.4511845 13.6464466,10.6464466 L4.64644661,19.6464466 C4.45118446,19.8417088 4.45118446,20.1582912 4.64644661,20.3535534 C4.84170876,20.5488155 5.15829124,20.5488155 5.35355339,20.3535534 L14,11.7071068 L22.6464466,20.3535534 Z"/>
    <polygon points="4 7 10 7 10 10.727 4 16.318"/>
    <polygon fill-rule="nonzero" points="3 6.5 11 6.5 11 5.5 3 5.5"/>
    <path fill-rule="nonzero" d="M18.5,21 L18.5,21.5058436 L17.9941906,21.4999662 C16.3211906,21.4805266 15.457727,21.4818238 14.0053987,21.4975062 L13.9293078,21.4983288 C12.4667786,21.5141416 11.6240734,21.5162276 9.99501196,21.4999751 L9.5,21.4950366 L9.5,21 C9.5,18.5147186 11.5147186,16.5 14,16.5 C16.4852814,16.5 18.5,18.5147186 18.5,21 Z M14,17.5 C12.2350721,17.5 10.7752602,18.8063563 10.5347494,20.5048837 C11.8265745,20.5155444 12.6296401,20.5123223 13.9184965,20.4983872 L13.9946013,20.4975645 C15.2886125,20.4835917 16.1198194,20.4809805 17.4637194,20.4941889 C17.2186077,18.8008758 15.7612218,17.5 14,17.5 Z"/>
    <polygon fill-rule="nonzero" points="14.5 21 14.5 17 13.5 17 13.5 21"/>
    <polygon fill-rule="nonzero" points="14.349 20.653 11.521 17.825 10.814 18.532 13.642 21.36"/>
    <polygon fill-rule="nonzero" points="17.349 20.653 14.521 17.825 13.814 18.532 16.642 21.36" transform="matrix(-1 0 0 1 31.163 0)"/>
  </g>
</svg>
