<svg xmlns="http://www.w3.org/2000/svg" width="28" height="28" viewBox="0 0 28 28">
  <g fill="#000000">
    <path d="M16.0296942 11L24 11 24 24 15 24 15 18.9225427C15 18.370258 14.5522847 17.9225427 14 17.9225427 13.4477153 17.9225427 13 18.370258 13 18.9225427L13 24C13 25.1045695 13.8954305 26 15 26L24 26C25.1045695 26 26 25.1045695 26 24L26 11C26 9.8954305 25.1045695 9 24 9L16.0296942 9C15.4774095 9 15.0296942 9.44771525 15.0296942 10 15.0296942 10.5522847 15.4774095 11 16.0296942 11zM8 17.5C4.32857737 17.5 2 15.6615782 2 11.9166667 2 9.26587361 3.8087538 6.40201343 7.33393432 3.2541069L8 2.65932531 8.66606568 3.2541069C12.1912462 6.40201343 14 9.26587361 14 11.9166667 14 15.6615782 11.6714226 17.5 8 17.5zM4 11.9166667C4 14.4395026 5.34324461 15.5 8 15.5 10.6567554 15.5 12 14.4395026 12 11.9166667 12 10.108424 10.6911471 7.90326402 8 5.35764685 5.30885291 7.90326402 4 10.108424 4 11.9166667z"/>
    <path d="M7.5,15 L7.5,19.5079336 C7.5,19.784076 7.72385763,20.0079336 8,20.0079336 C8.27614237,20.0079336 8.5,19.784076 8.5,19.5079336 L8.5,15 C8.5,14.7238576 8.27614237,14.5 8,14.5 C7.72385763,14.5 7.5,14.7238576 7.5,15 Z"/>
    <path d="M7 19L9 19C9.55228475 19 10 19.4477153 10 20L10 24C10 25.1045695 9.1045695 26 8 26 6.8954305 26 6 25.1045695 6 24L6 20C6 19.4477153 6.44771525 19 7 19zM25.0716165 12.5085984L16.4119518 12.5085984C16.1358094 12.5085984 15.9119518 12.7324561 15.9119518 13.0085984 15.9119518 13.2847408 16.1358094 13.5085984 16.4119518 13.5085984L25.0716165 13.5085984C25.3477588 13.5085984 25.5716165 13.2847408 25.5716165 13.0085984 25.5716165 12.7324561 25.3477588 12.5085984 25.0716165 12.5085984zM17.5 16.5L17.5 21.5 24.5 21.5 24.5 16.5 17.5 16.5zM25.5 15.5L25.5 22.5 16.5 22.5 16.5 15.5 25.5 15.5z"/>
  </g>
</svg>
