<svg xmlns="http://www.w3.org/2000/svg" width="28" height="28" viewBox="0 0 28 28">
  <g fill="#000000" fill-rule="evenodd">
    <path fill-rule="nonzero" d="M6,5 C5.44771525,5 5,5.44771525 5,6 L5,22 C5,22.5522847 5.44771525,23 6,23 L22,23 C22.5522847,23 23,22.5522847 23,22 L23,6 C23,5.44771525 22.5522847,5 22,5 L6,5 Z M6,3 L22,3 C23.6568542,3 25,4.34314575 25,6 L25,22 C25,23.6568542 23.6568542,25 22,25 L6,25 C4.34314575,25 3,23.6568542 3,22 L3,6 C3,4.34314575 4.34314575,3 6,3 Z"/>
    <path fill-rule="nonzero" d="M14,22 C9.581722,22 6,18.418278 6,14 C6,9.581722 9.581722,6 14,6 C18.418278,6 22,9.581722 22,14 C22,18.418278 18.418278,22 14,22 Z M14,20 C17.3137085,20 20,17.3137085 20,14 C20,10.6862915 17.3137085,8 14,8 C10.6862915,8 8,10.6862915 8,14 C8,17.3137085 10.6862915,20 14,20 Z"/>
    <circle cx="11" cy="14" r="1"/>
    <circle cx="17" cy="14" r="1"/>
  </g>
</svg>
