<svg xmlns="http://www.w3.org/2000/svg" width="28" height="28" viewBox="0 0 28 28">
  <g fill="#000000">
    <path d="M9 7L9 5C9 4.44771525 8.55228475 4 8 4 7.44771525 4 7 4.44771525 7 5L7 7C7 7.55228475 7.44771525 8 8 8 8.55228475 8 9 7.55228475 9 7zM21 7L21 5C21 4.44771525 20.5522847 4 20 4 19.4477153 4 19 4.44771525 19 5L19 7C19 7.55228475 19.4477153 8 20 8 20.5522847 8 21 7.55228475 21 7z"/>
    <path d="M6,8 C5.44771525,8 5,8.44771525 5,9 L5,19 C5,19.5522847 5.44771525,20 6,20 L22,20 C22.5522847,20 23,19.5522847 23,19 L23,9 C23,8.44771525 22.5522847,8 22,8 L6,8 Z M6,6 L22,6 C23.6568542,6 25,7.34314575 25,9 L25,19 C25,20.6568542 23.6568542,22 22,22 L6,22 C4.34314575,22 3,20.6568542 3,19 L3,9 C3,7.34314575 4.34314575,6 6,6 Z"/>
    <path d="M17,12.6304348 C17.4149614,12.6304348 17.6493313,13.1067319 17.3961476,13.4355038 L13.6461476,18.305069 C13.317132,18.7323125 12.6381212,18.4079124 12.7637604,17.8835051 L13.3660585,15.3695652 L11,15.3695652 C10.5850386,15.3695652 10.3506687,14.8932681 10.6038524,14.5644962 L14.3538524,9.694931 C14.682868,9.26768752 15.3618788,9.59208758 15.2362396,10.1164949 L14.6339415,12.6304348 L17,12.6304348 Z"/>
  </g>
</svg>
