<svg xmlns="http://www.w3.org/2000/svg" width="28" height="28" viewBox="0 0 28 28">
  <g fill="#000000">
    <path d="M7,5 L7,23 L21,23 L21,5 L7,5 Z M7,3 L21,3 C22.1045695,3 23,3.8954305 23,5 L23,23 C23,24.1045695 22.1045695,25 21,25 L7,25 C5.8954305,25 5,24.1045695 5,23 L5,5 C5,3.8954305 5.8954305,3 7,3 Z"/>
    <path d="M14,20.5 C10.9624339,20.5 8.5,18.0375661 8.5,15 C8.5,11.9624339 10.9624339,9.5 14,9.5 C17.0375661,9.5 19.5,11.9624339 19.5,15 C19.5,18.0375661 17.0375661,20.5 14,20.5 Z M14,19.5 C16.4852814,19.5 18.5,17.4852814 18.5,15 C18.5,12.5147186 16.4852814,10.5 14,10.5 C11.5147186,10.5 9.5,12.5147186 9.5,15 C9.5,17.4852814 11.5147186,19.5 14,19.5 Z"/>
    <polygon points="9 7.5 12 7.5 12 6.5 9 6.5"/>
  </g>
</svg>
