<svg xmlns="http://www.w3.org/2000/svg" width="203" height="60" viewBox="0 0 203 60">
  <defs>
    <linearGradient id="a" x1="91.476%" x2="-38.55%" y1="4.948%" y2="71.907%">
      <stop stop-color="#00A0FF" offset="0%"/>
      <stop stop-color="#00A1FF" offset="1%"/>
      <stop stop-color="#00BEFF" offset="26%"/>
      <stop stop-color="#00D2FF" offset="51%"/>
      <stop stop-color="#00DFFF" offset="76%"/>
      <stop stop-color="#00E3FF" offset="100%"/>
    </linearGradient>
    <linearGradient id="b" x1="107.685%" x2="-130.64%" y1="50%" y2="50%">
      <stop stop-color="#FFE000" offset="0%"/>
      <stop stop-color="#FFBD00" offset="41%"/>
      <stop stop-color="#FFA500" offset="78%"/>
      <stop stop-color="#FF9C00" offset="100%"/>
    </linearGradient>
    <linearGradient id="c" x1="86.219%" x2="-50.15%" y1="17.799%" y2="194.703%">
      <stop stop-color="#FF3A44" offset="0%"/>
      <stop stop-color="#C31162" offset="100%"/>
    </linearGradient>
    <linearGradient id="d" x1="-18.754%" x2="42.121%" y1="-54.13%" y2="24.917%">
      <stop stop-color="#32A071" offset="0%"/>
      <stop stop-color="#2DA771" offset="7%"/>
      <stop stop-color="#15CF74" offset="48%"/>
      <stop stop-color="#06E775" offset="80%"/>
      <stop stop-color="#00F076" offset="100%"/>
    </linearGradient>
  </defs>
  <g fill="none" transform="translate(.5)">
    <rect width="202.5" height="60" fill="#000000" rx="7.5"/>
    <path fill="#A6A6A6" d="M195,1.2 C198.479394,1.2 201.3,4.02060608 201.3,7.5 L201.3,52.5 C201.3,55.9793939 198.479394,58.8 195,58.8 L7.5,58.8 C4.02060608,58.8 1.2,55.9793939 1.2,52.5 L1.2,7.5 C1.2,4.02060608 4.02060608,1.2 7.5,1.2 L195,1.2 L195,1.2 Z M195,0 L7.5,0 C3.35786438,-2.53632657e-16 5.07265313e-16,3.35786438 0,7.5 L0,52.5 C5.07265313e-16,56.6421356 3.35786438,60 7.5,60 L195,60 C199.142136,60 202.5,56.6421356 202.5,52.5 L202.5,7.5 C202.5,3.35786438 199.142136,2.53632657e-16 195,0 Z"/>
    <path fill="#FFFFFF" stroke="#FFFFFF" stroke-width=".5" d="M71.13,15.36 C71.1815303,16.4718466 70.7749014,17.5561903 70.005,18.36 C69.1446746,19.2537048 67.9447257,19.7391387 66.705,19.695 C65.4574718,19.7072178 64.2576944,19.2160024 63.3769291,18.3324141 C62.4961638,17.4488258 62.0087902,16.2474827 62.025,15 C62.0087902,13.7525173 62.4961638,12.5511742 63.3769291,11.6675859 C64.2576944,10.7839976 65.4574718,10.2927822 66.705,10.305 C67.3391364,10.3028871 67.9670039,10.4305025 68.55,10.68 C69.0927817,10.8989303 69.5759761,11.2433348 69.96,11.685 L69.165,12.48 C68.5580202,11.7580147 67.6468273,11.3635348 66.705,11.415 C65.7609632,11.4105007 64.8556071,11.7897321 64.1966036,12.4657056 C63.5376002,13.1416791 63.1815051,14.0563826 63.21,15 C63.1899029,16.4297845 64.0319648,17.7312593 65.3443999,18.2988875 C66.6568351,18.8665156 68.1818888,18.5888185 69.21,17.595 C69.6715642,17.0948049 69.9377745,16.4452519 69.96,15.765 L66.705,15.765 L66.705,14.685 L71.07,14.685 C71.1100097,14.9077712 71.1300891,15.1336645 71.13,15.36 Z"/>
    <polygon fill="#FFFFFF" stroke="#FFFFFF" stroke-width=".5" points="78 11.61 73.95 11.61 73.95 14.46 77.64 14.46 77.64 15.54 73.95 15.54 73.95 18.39 78 18.39 78 19.5 72.75 19.5 72.75 10.5 78 10.5"/>
    <polygon fill="#FFFFFF" stroke="#FFFFFF" stroke-width=".5" points="82.92 19.5 81.765 19.5 81.765 11.61 79.245 11.61 79.245 10.5 85.5 10.5 85.5 11.61 82.92 11.61"/>
    <polygon fill="#FFFFFF" stroke="#FFFFFF" stroke-width=".5" points="89.91 19.5 89.91 10.5 91.065 10.5 91.065 19.5"/>
    <polygon fill="#FFFFFF" stroke="#FFFFFF" stroke-width=".5" points="96.195 19.5 95.04 19.5 95.04 11.61 92.52 11.61 92.52 10.5 98.7 10.5 98.7 11.61 96.195 11.61"/>
    <path fill="#FFFFFF" stroke="#FFFFFF" stroke-width=".5" d="M110.415,18.33 C108.589485,20.1453418 105.640515,20.1453418 103.815,18.33 C102.943623,17.4436322 102.46756,16.2426556 102.495,15 C102.46756,13.7573444 102.943623,12.5563678 103.815,11.67 C104.687998,10.79062 105.875874,10.2960495 107.115,10.2960495 C108.354126,10.2960495 109.542002,10.79062 110.415,11.67 C111.286377,12.5563678 111.76244,13.7573444 111.735,15 C111.76244,16.2426556 111.286377,17.4436322 110.415,18.33 L110.415,18.33 Z M104.67,17.58 C106.021986,18.9263476 108.208014,18.9263476 109.56,17.58 C110.232874,16.8930729 110.595918,15.9610784 110.565,15 C110.580108,14.0300973 110.194865,13.0968327 109.5,12.42 C108.148014,11.0736524 105.961986,11.0736524 104.61,12.42 C103.958999,13.1167797 103.618066,14.0475811 103.665,15 C103.634082,15.9610784 103.997126,16.8930729 104.67,17.58 L104.67,17.58 Z"/>
    <polygon fill="#FFFFFF" stroke="#FFFFFF" stroke-width=".5" points="113.37 19.5 113.37 10.5 114.78 10.5 119.16 17.505 119.16 17.505 119.16 15.765 119.16 10.5 120.315 10.5 120.315 19.5 119.115 19.5 114.525 12.165 114.525 12.165 114.525 13.905 114.525 19.5"/>
    <path fill="#FFFFFF" d="M102.21,32.625 C98.6931375,32.6415501 95.8540108,35.5030217 95.8650313,39.0199059 C95.8760518,42.5367901 98.7330558,45.3804124 102.249953,45.3749216 C105.76685,45.3694309 108.614961,42.5169015 108.615,39 C108.639709,37.2965607 107.971847,35.6560646 106.764383,34.4542555 C105.556918,33.2524464 103.913305,32.5922935 102.21,32.625 Z M102.21,42.87 C100.624841,42.9808579 99.1330094,42.1114702 98.448032,40.6776556 C97.7630545,39.243841 98.0241538,37.5370242 99.1064488,36.373557 C100.188744,35.2100899 101.872257,34.8264486 103.351782,35.4061246 C104.831307,35.9858006 105.806128,37.4109741 105.81,39 C105.858814,39.9940078 105.504049,40.9655892 104.826211,41.6942656 C104.148372,42.422942 103.204938,42.8469246 102.21,42.87 Z M88.245,32.625 C84.7261492,32.6332797 81.8794913,35.4911203 81.8850078,39.0099765 C81.8905244,42.5288327 84.7461288,45.3777338 88.2649882,45.3749804 C91.7838477,45.372227 94.6349903,42.5188605 94.635,39 C94.6597095,37.2965607 93.9918474,35.6560646 92.7843827,34.4542555 C91.576918,33.2524464 89.9333046,32.5922935 88.23,32.625 L88.245,32.625 Z M88.245,42.87 C86.6590136,42.9871096 85.1628323,42.1220569 84.4730276,40.6891449 C83.7832229,39.2562329 84.0402341,37.5471923 85.1209701,36.3805401 C86.201706,35.2138879 87.8861363,34.8271464 89.3675308,35.405539 C90.8489252,35.9839316 91.8256822,37.4097017 91.83,39 C91.8788142,39.9940078 91.524049,40.9655892 90.8462105,41.6942656 C90.168372,42.422942 89.2249382,42.8469246 88.23,42.87 L88.245,42.87 Z M71.61,34.59 L71.61,37.29 L78.09,37.29 C77.9883951,38.5617057 77.4597669,39.7616917 76.59,40.695 C75.2790343,42.030337 73.4648148,42.749487 71.595,42.675 C67.6185498,42.675 64.395,39.4514502 64.395,35.475 C64.395,31.4985498 67.6185498,28.275 71.595,28.275 C73.4216936,28.2452083 75.1856429,28.9410782 76.5,30.21 L78.405,28.305 C76.6123794,26.4897872 74.1610776,25.4778812 71.61,25.5 C67.9784411,25.3586685 64.5605903,27.2155077 62.7027811,30.3390856 C60.8449718,33.4626635 60.8449718,37.3523365 62.7027811,40.4759144 C64.5605903,43.5994923 67.9784411,45.4563315 71.61,45.315 C74.2076475,45.4323815 76.7291111,44.4205144 78.525,42.54 C80.0965136,40.8133824 80.9355646,38.5436418 80.865,36.21 C80.8698403,35.6414823 80.8196058,35.0738322 80.715,34.515 L71.61,34.59 Z M139.575,36.69 C138.774119,34.3338151 136.601892,32.7165796 134.115,32.625 C132.456545,32.6217575 130.870718,33.3051113 129.734069,34.5128003 C128.597421,35.7204893 128.011343,37.3447847 128.115,39 C128.078161,40.6939442 128.731747,42.3300425 129.925578,43.5323611 C131.11941,44.7346797 132.750837,45.3998382 134.445,45.375 C136.576288,45.3864885 138.570965,44.3271683 139.755,42.555 L137.58,41.055 C136.919619,42.1559133 135.728784,42.8282505 134.445,42.825 C133.115387,42.8756777 131.889962,42.1082998 131.355,40.89 L139.89,37.365 L139.575,36.69 Z M130.875,38.82 C130.813578,37.8827464 131.131989,36.9602175 131.75845,36.2603867 C132.384911,35.5605559 133.26669,35.1423325 134.205,35.1 C135.194055,35.0348274 136.1266,35.5660238 136.575,36.45 L130.875,38.82 Z M123.945,45 L126.75,45 L126.75,26.25 L123.945,26.25 L123.945,45 Z M119.355,34.05 L119.25,34.05 C118.394943,33.0940152 117.172586,32.5483199 115.89,32.55 C112.48522,32.7151075 109.809506,35.5237194 109.809506,38.9325 C109.809506,42.3412806 112.48522,45.1498925 115.89,45.315 C117.176743,45.3366356 118.407024,44.7874032 119.25,43.815 L119.34,43.815 L119.34,44.73 C119.34,47.175 118.035,48.48 115.935,48.48 C114.504455,48.4465161 113.236092,47.5515502 112.725,46.215 L110.28,47.235 C111.221522,49.5252165 113.458846,51.0147875 115.935,51 C119.22,51 121.935,49.065 121.935,44.355 L121.935,33 L119.355,33 L119.355,34.05 Z M116.145,42.87 C114.139331,42.6932397 112.601065,41.0134425 112.601065,39 C112.601065,36.9865575 114.139331,35.3067603 116.145,35.13 C117.114179,35.1797363 118.022229,35.6186552 118.663275,36.3472447 C119.304321,37.0758342 119.624059,38.0323753 119.55,39 C119.632702,39.9720741 119.313986,40.9356467 118.667955,41.6666816 C118.021925,42.3977164 117.104866,42.8325207 116.13,42.87 L116.145,42.87 Z M152.715,26.25 L145.995,26.25 L145.995,45 L148.8,45 L148.8,37.89 L152.715,37.89 C154.894026,38.0465457 156.977961,36.9727634 158.115195,35.1074595 C159.252429,33.2421555 159.252429,30.8978445 158.115195,29.0325405 C156.977961,27.1672366 154.894026,26.0934543 152.715,26.25 L152.715,26.25 Z M152.715,35.25 L148.8,35.25 L148.8,28.86 L152.775,28.86 C154.551976,28.86 155.9925,30.3005238 155.9925,32.0775 C155.9925,33.8544762 154.551976,35.295 152.775,35.295 L152.715,35.25 Z M170.01,32.55 C167.923069,32.4252584 165.96103,33.550632 165.015,35.415 L167.505,36.45 C168.006609,35.5255023 169.006687,34.9842834 170.055,35.07 C170.774292,34.9859919 171.49718,35.1944551 172.061292,35.6485653 C172.625404,36.1026754 172.983448,36.7643623 173.055,37.485 L173.055,37.68 C172.154089,37.2029986 171.149388,36.9556878 170.13,36.96 C167.445,36.96 164.73,38.46 164.73,41.175 C164.783531,42.3445632 165.307861,43.4427443 166.183697,44.219696 C167.059534,44.9966478 168.212397,45.386299 169.38,45.3 C170.818844,45.4033246 172.199353,44.7130697 172.98,43.5 L173.07,43.5 L173.07,45 L175.77,45 L175.77,37.785 C175.77,34.5 173.28,32.595 170.085,32.595 L170.01,32.55 Z M169.665,42.825 C168.75,42.825 167.475,42.36 167.475,41.235 C167.475,39.735 169.065,39.24 170.475,39.24 C171.366063,39.2180129 172.246696,39.4355811 173.025,39.87 C172.831044,41.5491225 171.429785,42.8288108 169.74,42.87 L169.665,42.825 Z M185.61,33 L182.4,41.13 L182.31,41.13 L178.98,33 L175.98,33 L180.975,44.37 L178.125,50.685 L181.05,50.685 L188.73,33 L185.61,33 Z M160.395,45 L163.2,45 L163.2,26.25 L160.395,26.25 L160.395,45 Z"/>
    <path fill="url(#a)" d="M15.66,11.31 C15.1818549,11.9010833 14.9459599,12.6516585 15,13.41 L15,46.59 C14.9543305,47.3523076 15.2010974,48.1033375 15.69,48.69 L15.795,48.795 L34.35,30.225 L34.35,29.79 L15.765,11.205 L15.66,11.31 Z"/>
    <path fill="url(#b)" d="M40.5,36.42 L34.35,30.225 L34.35,29.79 L40.5,23.58 L40.635,23.655 L48,27.84 C50.1,29.025 50.1,30.975 48,32.175 L40.665,36.345 L40.5,36.42 Z"/>
    <path fill="url(#c)" d="M40.68,36.345 L34.35,30 L15.66,48.69 C16.5430766,49.4662836 17.8536434,49.5040884 18.78,48.78 L40.695,36.33"/>
    <path fill="url(#d)" d="M40.68,23.67 L18.765,11.22 C17.8386434,10.4959116 16.5280766,10.5337164 15.645,11.31 L34.35,30 L40.68,23.67 Z"/>
    <path fill="#000000" d="M40.5,36.195 L18.765,48.57 C17.8755578,49.2350047 16.6544422,49.2350047 15.765,48.57 L15.765,48.57 L15.66,48.675 L15.66,48.675 L15.765,48.78 L15.765,48.78 C16.6527687,49.4500189 17.8772313,49.4500189 18.765,48.78 L40.68,36.33 L40.5,36.195 Z" opacity=".2"/>
    <path fill="#000000" d="M15.66 48.48C15.1710974 47.8933375 14.9243305 47.1423076 14.97 46.38L14.97 46.605C14.9243305 47.3673076 15.1710974 48.1183375 15.66 48.705L15.765 48.6 15.66 48.48zM48 31.95L40.5 36.195 40.635 36.33 48 32.16C48.8506052 31.7604198 49.4227026 30.9365995 49.5 30L49.5 30C49.3290442 30.8472569 48.7750589 31.5674378 48 31.95z" opacity=".12"/>
    <path fill="#FFFFFF" d="M18.765,11.43 L48,28.05 C48.7750589,28.4325622 49.3290442,29.1527431 49.5,30 L49.5,30 C49.4227026,29.0634005 48.8506052,28.2395802 48,27.84 L18.765,11.22 C16.68,10.02 15,11.01 15,13.41 L15,13.635 C15,11.235 16.68,10.245 18.765,11.43 Z" opacity=".25"/>
  </g>
</svg>
